<?xml version="1.0" encoding="UTF-8" standalone="no"?>
<!-- Created with Inkscape (http://www.inkscape.org/) -->

<svg
   width="400.21255"
   height="400.21921"
   id="svg5321"
   version="1.1"
   inkscape:version="1.1 (c68e22c387, 2021-05-23)"
   sodipodi:docname="Denmark_road_sign_C12.svg"
   xmlns:inkscape="http://www.inkscape.org/namespaces/inkscape"
   xmlns:sodipodi="http://sodipodi.sourceforge.net/DTD/sodipodi-0.dtd"
   xmlns="http://www.w3.org/2000/svg"
   xmlns:svg="http://www.w3.org/2000/svg"
   xmlns:rdf="http://www.w3.org/1999/02/22-rdf-syntax-ns#"
   xmlns:cc="http://creativecommons.org/ns#"
   xmlns:dc="http://purl.org/dc/elements/1.1/">
  <defs
     id="defs5323">
    <inkscape:perspective
       sodipodi:type="inkscape:persp3d"
       inkscape:vp_x="0 : 526.18109 : 1"
       inkscape:vp_y="0 : 1000 : 0"
       inkscape:vp_z="744.09448 : 526.18109 : 1"
       inkscape:persp3d-origin="372.04724 : 350.78739 : 1"
       id="perspective5329" />
    <inkscape:perspective
       id="perspective5339"
       inkscape:persp3d-origin="0.5 : 0.33333333 : 1"
       inkscape:vp_z="1 : 0.5 : 1"
       inkscape:vp_y="0 : 1000 : 0"
       inkscape:vp_x="0 : 0.5 : 1"
       sodipodi:type="inkscape:persp3d" />
    <clipPath
       clipPathUnits="userSpaceOnUse"
       id="clipPath4202">
      <path
         d="m 20.045,731.714 42.114,0 0,37.012 -42.114,0 0,-37.012 z"
         id="path4204" />
    </clipPath>
    <inkscape:perspective
       id="perspective5396"
       inkscape:persp3d-origin="425 : 140 : 1"
       inkscape:vp_z="850 : 210 : 1"
       inkscape:vp_y="0 : 1000 : 0"
       inkscape:vp_x="0 : 210 : 1"
       sodipodi:type="inkscape:persp3d" />
    <inkscape:perspective
       id="perspective5429"
       inkscape:persp3d-origin="0.5 : 0.33333333 : 1"
       inkscape:vp_z="1 : 0.5 : 1"
       inkscape:vp_y="0 : 1000 : 0"
       inkscape:vp_x="0 : 0.5 : 1"
       sodipodi:type="inkscape:persp3d" />
    <clipPath
       clipPathUnits="userSpaceOnUse"
       id="clipPath2840">
      <path
         d="m 77.057,731.714 42.114,0 0,37.012 -42.114,0 0,-37.012 z"
         id="path2842" />
    </clipPath>
    <inkscape:perspective
       id="perspective5499"
       inkscape:persp3d-origin="0.5 : 0.33333333 : 1"
       inkscape:vp_z="1 : 0.5 : 1"
       inkscape:vp_y="0 : 1000 : 0"
       inkscape:vp_x="0 : 0.5 : 1"
       sodipodi:type="inkscape:persp3d" />
    <clipPath
       clipPathUnits="userSpaceOnUse"
       id="clipPath3036">
      <path
         d="m 134.072,731.751 42.114,0 0,36.975 -42.114,0 0,-36.975 z"
         id="path3038" />
    </clipPath>
    <inkscape:perspective
       id="perspective5621"
       inkscape:persp3d-origin="0.5 : 0.33333333 : 1"
       inkscape:vp_z="1 : 0.5 : 1"
       inkscape:vp_y="0 : 1000 : 0"
       inkscape:vp_x="0 : 0.5 : 1"
       sodipodi:type="inkscape:persp3d" />
    <clipPath
       clipPathUnits="userSpaceOnUse"
       id="clipPath2952">
      <path
         d="m 191.084,731.751 42.113,0 0,36.975 -42.113,0 0,-36.975 z"
         id="path2954" />
    </clipPath>
    <clipPath
       clipPathUnits="userSpaceOnUse"
       id="clipPath2936">
      <path
         d="m 191.084,731.751 42.113,0 0,36.975 -42.113,0 0,-36.975 z"
         id="path2938" />
    </clipPath>
    <inkscape:perspective
       id="perspective5694"
       inkscape:persp3d-origin="0.5 : 0.33333333 : 1"
       inkscape:vp_z="1 : 0.5 : 1"
       inkscape:vp_y="0 : 1000 : 0"
       inkscape:vp_x="0 : 0.5 : 1"
       sodipodi:type="inkscape:persp3d" />
    <inkscape:perspective
       inkscape:vp_x="0 : 226.5 : 1"
       inkscape:vp_y="0 : 1000 : 0"
       inkscape:vp_z="510 : 226.5 : 1"
       inkscape:persp3d-origin="255 : 151 : 1"
       id="perspective18"
       sodipodi:type="inkscape:persp3d" />
    <inkscape:perspective
       id="perspective5722"
       inkscape:persp3d-origin="0.5 : 0.33333333 : 1"
       inkscape:vp_z="1 : 0.5 : 1"
       inkscape:vp_y="0 : 1000 : 0"
       inkscape:vp_x="0 : 0.5 : 1"
       sodipodi:type="inkscape:persp3d" />
    <clipPath
       clipPathUnits="userSpaceOnUse"
       id="clipPath3216">
      <path
         d="m 248.098,731.74 42.114,0 0,36.986 -42.114,0 0,-36.986 z"
         id="path3218" />
    </clipPath>
    <inkscape:perspective
       id="perspective5860"
       inkscape:persp3d-origin="0.5 : 0.33333333 : 1"
       inkscape:vp_z="1 : 0.5 : 1"
       inkscape:vp_y="0 : 1000 : 0"
       inkscape:vp_x="0 : 0.5 : 1"
       sodipodi:type="inkscape:persp3d" />
    <clipPath
       clipPathUnits="userSpaceOnUse"
       id="clipPath2880">
      <path
         d="m 305.111,731.751 42.114,0 0,36.975 -42.114,0 0,-36.975 z"
         id="path2882" />
    </clipPath>
    <inkscape:perspective
       id="perspective5456"
       inkscape:persp3d-origin="0.5 : 0.33333333 : 1"
       inkscape:vp_z="1 : 0.5 : 1"
       inkscape:vp_y="0 : 1000 : 0"
       inkscape:vp_x="0 : 0.5 : 1"
       sodipodi:type="inkscape:persp3d" />
    <clipPath
       clipPathUnits="userSpaceOnUse"
       id="clipPath3316">
      <path
         d="m 77.057,409.341 42.114,0 0,42.114 -42.114,0 0,-42.114 z"
         id="path3318" />
    </clipPath>
    <inkscape:perspective
       id="perspective6307"
       inkscape:persp3d-origin="0.5 : 0.33333333 : 1"
       inkscape:vp_z="1 : 0.5 : 1"
       inkscape:vp_y="0 : 1000 : 0"
       inkscape:vp_x="0 : 0.5 : 1"
       sodipodi:type="inkscape:persp3d" />
    <clipPath
       clipPathUnits="userSpaceOnUse"
       id="clipPath3802">
      <path
         d="m 134.072,409.341 42.114,0 0,56.174 -42.114,0 0,-56.174 z"
         id="path3804" />
    </clipPath>
    <inkscape:perspective
       id="perspective6372"
       inkscape:persp3d-origin="0.5 : 0.33333333 : 1"
       inkscape:vp_z="1 : 0.5 : 1"
       inkscape:vp_y="0 : 1000 : 0"
       inkscape:vp_x="0 : 0.5 : 1"
       sodipodi:type="inkscape:persp3d" />
    <clipPath
       clipPathUnits="userSpaceOnUse"
       id="clipPath3564">
      <path
         d="m 191.084,409.341 42.113,0 0,42.113 -42.113,0 0,-42.113 z"
         id="path3566" />
    </clipPath>
    <inkscape:perspective
       id="perspective6525"
       inkscape:persp3d-origin="0.5 : 0.33333333 : 1"
       inkscape:vp_z="1 : 0.5 : 1"
       inkscape:vp_y="0 : 1000 : 0"
       inkscape:vp_x="0 : 0.5 : 1"
       sodipodi:type="inkscape:persp3d" />
    <clipPath
       clipPathUnits="userSpaceOnUse"
       id="clipPath3420">
      <path
         d="m 305.125,409.34 42.114,0 0,42.114 -42.114,0 0,-42.114 z"
         id="path3422" />
    </clipPath>
    <inkscape:perspective
       id="perspective6601"
       inkscape:persp3d-origin="0.5 : 0.33333333 : 1"
       inkscape:vp_z="1 : 0.5 : 1"
       inkscape:vp_y="0 : 1000 : 0"
       inkscape:vp_x="0 : 0.5 : 1"
       sodipodi:type="inkscape:persp3d" />
    <clipPath
       clipPathUnits="userSpaceOnUse"
       id="clipPath3822">
      <path
         d="m 362.126,409.341 42.114,0 0,42.114 -42.114,0 0,-42.114 z"
         id="path3824" />
    </clipPath>
    <inkscape:perspective
       id="perspective6677"
       inkscape:persp3d-origin="0.5 : 0.33333333 : 1"
       inkscape:vp_z="1 : 0.5 : 1"
       inkscape:vp_y="0 : 1000 : 0"
       inkscape:vp_x="0 : 0.5 : 1"
       sodipodi:type="inkscape:persp3d" />
    <inkscape:perspective
       id="perspective6691"
       inkscape:persp3d-origin="0.5 : 0.33333333 : 1"
       inkscape:vp_z="1 : 0.5 : 1"
       inkscape:vp_y="0 : 1000 : 0"
       inkscape:vp_x="0 : 0.5 : 1"
       sodipodi:type="inkscape:persp3d" />
    <clipPath
       clipPathUnits="userSpaceOnUse"
       id="clipPath4098">
      <path
         d="m 20.045,328.96 42.113,0 0,42.115 -42.113,0 0,-42.115 z"
         id="path4100" />
    </clipPath>
    <inkscape:perspective
       id="perspective6753"
       inkscape:persp3d-origin="0.5 : 0.33333333 : 1"
       inkscape:vp_z="1 : 0.5 : 1"
       inkscape:vp_y="0 : 1000 : 0"
       inkscape:vp_x="0 : 0.5 : 1"
       sodipodi:type="inkscape:persp3d" />
    <clipPath
       clipPathUnits="userSpaceOnUse"
       id="clipPath3336">
      <path
         d="m 77.057,328.96 42.114,0 0,42.115 -42.114,0 0,-42.115 z"
         id="path3338" />
    </clipPath>
    <inkscape:perspective
       id="perspective6818"
       inkscape:persp3d-origin="0.5 : 0.33333333 : 1"
       inkscape:vp_z="1 : 0.5 : 1"
       inkscape:vp_y="0 : 1000 : 0"
       inkscape:vp_x="0 : 0.5 : 1"
       sodipodi:type="inkscape:persp3d" />
    <clipPath
       clipPathUnits="userSpaceOnUse"
       id="clipPath3692">
      <path
         d="m 134.072,328.96 42.114,0 0,42.115 -42.114,0 0,-42.115 z"
         id="path3694" />
    </clipPath>
  </defs>
  <sodipodi:namedview
     id="base"
     pagecolor="#ffffff"
     bordercolor="#666666"
     borderopacity="1.0"
     inkscape:pageopacity="0.0"
     inkscape:pageshadow="2"
     inkscape:zoom="0.7048968"
     inkscape:cx="311.3931"
     inkscape:cy="226.27426"
     inkscape:document-units="px"
     inkscape:current-layer="g4110"
     showgrid="false"
     inkscape:window-width="1366"
     inkscape:window-height="705"
     inkscape:window-x="-8"
     inkscape:window-y="-8"
     inkscape:window-maximized="1"
     inkscape:pagecheckerboard="0" />
  <metadata
     id="metadata5326">
    <rdf:RDF>
      <cc:Work
         rdf:about="">
        <dc:format>image/svg+xml</dc:format>
        <dc:type
           rdf:resource="http://purl.org/dc/dcmitype/StillImage" />
      </cc:Work>
    </rdf:RDF>
  </metadata>
  <g
     inkscape:label="Livello 1"
     inkscape:groupmode="layer"
     id="layer1"
     transform="translate(-615.8778,-387.53298)">
    <g
       inkscape:label="Ebene 1"
       inkscape:groupmode="layer"
       transform="translate(-501.54702,586.32528)"
       id="layer1-0" />
    <g
       transform="matrix(4.517624,0,0,-4.517624,-1108.878,2421.7478)"
       id="g3560">
      <g
         id="g3562"
         clip-path="url(#clipPath3564)">
        <g
           id="g3568"
           transform="translate(192.0202,432.6087)">
          <path
             d="m 0,0 17.908,17.908 c 1.214,1.249 3.212,1.249 4.424,0 L 40.241,0 c 1.249,-1.213 1.249,-3.21 0,-4.423 L 22.332,-22.332 c -1.212,-1.248 -3.21,-1.248 -4.424,0 L 0,-4.423 C -1.248,-3.21 -1.248,-1.213 0,0"
             style="fill:#000000;fill-opacity:1;fill-rule:nonzero;stroke:none"
             id="path3570" />
        </g>
        <g
           id="g3572"
           transform="translate(193.1263,431.5029)">
          <path
             d="m 0,0 17.908,17.908 c 0.606,0.607 1.57,0.607 2.212,0 L 38.029,0 c 0.606,-0.607 0.606,-1.605 0,-2.212 L 20.12,-20.12 c -0.642,-0.607 -1.606,-0.607 -2.212,0 L 0,-2.212 C -0.607,-1.605 -0.607,-0.607 0,0"
             style="fill:#ffffff;fill-opacity:1;fill-rule:nonzero;stroke:none"
             id="path3574" />
        </g>
        <g
           id="g3576"
           transform="translate(197.6212,430.3971)">
          <path
             d="M 0,0 14.52,14.519 29.039,0 14.52,-14.519 Z"
             style="fill:#ffd520;fill-opacity:1;fill-rule:nonzero;stroke:none"
             id="path3578" />
        </g>
      </g>
    </g>
    <g
       id="g4102"
       transform="matrix(9.5032346,0,0,-9.5032346,615.88065,587.64259)">
      <path
         d="m 0,0 c 0,11.635 9.422,21.057 21.057,21.057 11.634,0 21.056,-9.422 21.056,-21.057 0,-11.635 -9.422,-21.057 -21.056,-21.057 C 9.422,-21.057 0,-11.635 0,0"
         style="fill:#ffffff;fill-opacity:1;fill-rule:nonzero;stroke:none"
         id="path4104" />
    </g>
    <g
       id="g4110"
       transform="matrix(9.5032346,0,0,-9.5032346,702.36674,492.00012)"
       style="fill:#ed171f;fill-opacity:1">
      <path
         inkscape:connector-curvature="0"
         style="fill:#000000;fill-rule:nonzero;stroke:none;stroke-width:0.0650337"
         id="path3767"
         d="m 11.719035,1.8296107 c 2.241303,0.00185 4.352132,-0.87153817 5.932288,-2.45299306 0.766999,-0.76467064 1.362699,-1.64372364 1.772168,-2.60541024 0.468477,-1.074444 0.69911,-2.3272744 0.69911,-3.3411117 V -21.119151 l -2.556635,2.556638 -2.556636,-2.556638 -0.08535,15.2991743 c -0.138205,0.5883432 -0.43879,1.135651 -0.886085,1.5851938 -0.616575,0.6140355 -1.44334,0.9550122 -2.318854,0.9531474 -0.881206,0.00185 -1.706973,-0.3391306 -2.3351161,-0.9531474 C 8.7696097,-4.8626011 8.4268667,-5.6870572 8.4287358,-6.567864 l 0.00201,-4.285625 -2.556634,-2.60745 -2.556636,2.60745 -0.00201,4.285625 c -0.00185,2.246016 0.8727522,4.3535179 2.4550206,5.94448164 1.5915369,1.58145489 3.7015548,2.45470086 5.9485486,2.45299306 z"
         sodipodi:nodetypes="cccscccccccccccccc" />
      <path
         d="m 0,0 c -2.32,-2.748 -3.676,-6.246 -3.676,-10.064 0,-8.637 6.995,-15.632 15.632,-15.632 3.819,0 7.352,1.356 10.064,3.676 z m 23.912,-20.093 c 2.319,2.713 3.676,6.21 3.676,10.029 0,8.636 -6.995,15.632 -15.632,15.632 C 8.137,5.568 4.64,4.212 1.892,1.892 Z m -33.013,10.029 c 0,11.635 9.422,21.056 21.057,21.056 11.634,0 21.056,-9.421 21.056,-21.056 0,-11.635 -9.422,-21.057 -21.056,-21.057 -11.635,0 -21.057,9.422 -21.057,21.057"
         style="fill:#ed171f;fill-opacity:1;fill-rule:nonzero;stroke:none"
         id="path4112" />
    </g>
  </g>
</svg>
