<svg width="1e3" height="143" version="1.1" xmlns="http://www.w3.org/2000/svg">
 <path d="m27.105 0.045463c-14.972 0-27.105 12.132-27.105 27.105v88.488c0 14.972 12.132 27.105 27.105 27.105h945.57c14.972 0 27.105-12.132 27.105-27.105v-88.488c0-14.972-12.132-27.105-27.105-27.105z" fill="#009e54" />
 <path d="m27.187 5.6219h944.47c12.868 0 23.227 9.9419 23.227 22.291v87.657c0 12.349-10.359 22.291-23.227 22.291h-944.47c-12.868 0-23.227-9.9419-23.227-22.291v-87.657c0-12.349 10.359-22.291 23.227-22.291z" fill="#fff" />
 <path d="m8.7858 71.6 53.918-57.613h906.42c11.426 0 15.924 9.1005 15.641 17.558v79.38c0 10.588-6.4384 17.872-17.128 17.872h-904.79z" fill="#009e54" />
 <path d="m773.04 18.314h187.12c14.846 0 19.31 6.2904 19.31 19.31v66.854c0 12.419-3.8426 19.31-19.31 19.31h-187.12c-12.539 0-19.31-8.6119-19.31-19.31v-66.854c0-10.697 8.6119-19.31 19.31-19.31z" />
 <path d="m774.46 27.068h185.96c5.5426 0 10.005 4.4622 10.005 10.005v67.957c0 5.5427-4.4622 10.005-10.005 10.005h-185.96c-5.5427 0-11.669-3.9518-11.669-11.669v-64.629c0-5.5427 6.126-11.669 11.669-11.669z" fill="#f7cd33" />
 <path d="m726.78 63.175v4.751h-9.7013v8.4058h-5.6489l-2.1663-8.4058h-55.293l-2.2617 8.4058h-5.5564v-8.4058h-9.7966v-4.751z" fill="#fff" />
 <path d="m673.26 121.52h-27.042l7.692-43.047h21.306z" fill="#fff" />
 <path d="m675.98 55.8h-17.642l6.0916-33.138h12.886z" fill="#fff" />
 <path d="m689.56 121.52h27.042l-7.692-43.047h-21.306z" fill="#fff" />
 <path d="m686.83 55.8h17.642l-6.0916-33.138h-12.886z" fill="#fff" />
 <path d="m82.729 64.604v13.312h516.24v-13.312z" fill="#fff" />
 <path d="m861.77 58.618c0 3.9003-2.2137 7.2735-4.7436 9.171l-28.673 24.877v10.541h43.957v-10.541h-27.934c6.5356-5.7977 13.282-11.385 19.817-17.182 4.7436-4.4274 8.1168-10.436 8.1168-17.182 0-10.963-9.3817-19.712-19.923-19.712h-0.21082c-7.4843 0.10541-17.182 3.4786-23.191 14.547l9.171 5.2706c4.322-8.5385 8.7492-9.3817 14.125-9.3817 5.2706 0 9.4872 4.1111 9.4872 9.5926z" />
 <path d="m898.77 45.866h-5.6923v9.4872h10.752v47.647h10.33v-62.721l-10.33-0.10541v1.3703c0 1.8974-2.4245 4.3219-5.0598 4.3219z" />
</svg>
